<?xml version="1.0" standalone="no"?>
<!DOCTYPE svg PUBLIC "-//W3C//DTD SVG 20010904//EN"
 "http://www.w3.org/TR/2001/REC-SVG-20010904/DTD/svg10.dtd">
<svg version="1.0" xmlns="http://www.w3.org/2000/svg"
 width="200.000000pt" height="200.000000pt" viewBox="0 0 200.000000 200.000000"
 preserveAspectRatio="xMidYMid meet">
<metadata>
Created by potrace 1.14, written by Peter Selinger 2001-2017
</metadata>
<g transform="translate(0.000000,200.000000) scale(0.100000,-0.100000)"
fill="#000000" stroke="none">
<path d="M845 1914 c-76 -24 -142 -47 -146 -52 -3 -4 -9 -27 -13 -51 -6 -38
-5 -42 8 -32 8 7 20 10 26 6 14 -9 13 8 -2 23 -8 8 -9 15 -2 22 12 12 84 -9
91 -26 3 -9 11 -9 30 1 64 33 273 25 316 -13 15 -14 17 -13 17 5 0 16 11 22
55 32 31 7 55 18 55 25 0 9 -172 71 -285 102 -5 2 -73 -17 -150 -42z m249 -15
c56 -17 105 -35 110 -39 15 -15 -60 -29 -101 -19 -52 12 -190 11 -233 -1 -37
-11 -110 5 -93 20 8 8 190 69 207 70 5 0 54 -14 110 -31z"/>
<path d="M604 1711 c8 -64 25 -101 44 -101 10 0 12 6 7 23 -4 12 -9 37 -12 56
-5 31 -4 33 18 25 13 -5 66 -8 118 -7 83 2 102 -1 152 -23 l57 -26 43 23 c38
20 60 24 154 25 61 0 121 4 133 8 22 7 24 6 20 -31 -2 -28 1 -38 12 -38 10 0
18 16 24 48 12 60 1 74 -46 58 -18 -6 -79 -10 -135 -10 -88 1 -108 -2 -156
-24 -54 -25 -55 -25 -83 -6 -34 22 -75 28 -204 34 -52 2 -108 7 -124 11 l-29
7 7 -52z"/>
<path d="M735 1626 c-56 -25 -105 -101 -105 -163 1 -107 123 -197 224 -163
110 36 157 149 103 250 -40 76 -143 111 -222 76z m143 -36 c127 -77 73 -265
-76 -262 -107 1 -171 118 -116 213 37 65 128 88 192 49z"/>
<path d="M848 1411 c-13 -24 -14 -29 -2 -24 13 5 34 34 34 47 0 15 -17 3 -32
-23z"/>
<path d="M1149 1617 c-31 -16 -51 -36 -67 -67 -73 -141 56 -296 206 -247 27 9
51 12 56 7 5 -5 7 -47 4 -93 -7 -143 -77 -245 -206 -305 -81 -37 -193 -37
-273 0 -61 28 -135 88 -144 118 -14 45 62 152 135 190 20 10 52 21 72 25 27 5
35 11 31 22 -4 11 -15 13 -41 8 -82 -15 -176 -86 -207 -155 l-19 -41 -15 28
c-8 16 -17 65 -19 116 -5 107 -25 115 -30 13 -2 -49 3 -86 18 -130 28 -85 112
-186 153 -186 8 0 17 -7 20 -15 4 -8 38 -24 78 -36 55 -17 86 -20 134 -16 72
7 141 32 149 54 4 8 13 13 21 9 22 -8 112 86 141 148 34 74 45 152 33 227 -9
54 -7 66 11 103 25 52 25 89 1 141 -45 98 -145 132 -242 82z m151 -26 c125
-67 79 -261 -62 -263 -57 -1 -104 25 -129 72 -67 124 67 258 191 191z"/>
<path d="M977 1355 c-23 -28 -26 -38 -17 -53 11 -16 11 -16 6 1 -6 19 25 57
47 57 18 0 37 -21 37 -42 0 -31 -23 -68 -42 -68 -20 0 -24 -15 -6 -26 10 -6
32 14 40 37 3 9 98 -20 145 -44 32 -17 103 -91 103 -107 0 -6 7 -10 15 -10 24
0 18 24 -20 73 -38 50 -136 106 -193 110 -35 2 -38 7 -20 25 9 9 4 20 -22 47
-19 19 -36 35 -39 35 -4 0 -19 -16 -34 -35z"/>
<path d="M1550 605 l0 -195 35 0 c33 0 35 2 35 33 0 36 43 89 58 71 5 -5 26
-30 46 -56 35 -44 42 -48 83 -48 l44 0 -61 78 c-33 43 -60 82 -60 87 0 5 23
33 52 62 l52 53 -40 0 c-35 0 -49 -7 -101 -55 -34 -30 -64 -55 -67 -55 -3 0
-6 50 -6 110 l0 110 -35 0 -35 0 0 -195z"/>
<path d="M255 781 c-48 -12 -74 -29 -90 -61 -35 -68 -5 -121 83 -145 114 -31
145 -58 110 -93 -17 -17 -111 -15 -153 2 -34 15 -35 14 -50 -14 l-15 -28 46
-18 c67 -26 161 -24 206 4 62 39 74 107 26 152 -13 11 -47 28 -78 36 -95 26
-110 34 -110 59 0 37 23 48 87 43 32 -3 65 -8 74 -12 11 -5 19 1 27 19 16 34
17 32 -20 44 -50 15 -110 20 -143 12z"/>
<path d="M645 693 c-10 -3 -29 -12 -42 -20 -21 -14 -23 -14 -23 1 0 12 -9 16
-35 16 l-35 0 0 -195 0 -195 34 0 c40 0 46 11 46 86 0 55 0 55 22 40 30 -21
103 -20 139 1 32 19 69 85 69 124 0 13 -9 43 -20 67 -26 58 -93 90 -155 75z
m85 -93 c17 -31 12 -85 -10 -108 -25 -27 -85 -30 -112 -5 -25 22 -25 104 0
125 35 32 102 25 122 -12z"/>
<path d="M964 689 c-36 -10 -91 -67 -100 -104 -15 -59 19 -131 76 -160 38 -19
123 -19 160 0 35 18 37 26 12 48 -12 11 -22 13 -32 7 -41 -26 -140 0 -140 36
0 11 21 14 110 14 107 0 110 1 110 23 -1 39 -37 105 -67 120 -40 21 -92 28
-129 16z m101 -74 c39 -38 32 -45 -50 -45 -68 0 -75 2 -75 19 0 49 85 67 125
26z"/>
<path d="M1267 686 c-59 -16 -60 -18 -46 -50 10 -21 15 -24 26 -14 8 6 37 12
64 12 39 1 54 -3 65 -18 27 -37 18 -46 -46 -46 -64 0 -113 -18 -124 -45 -24
-63 18 -115 91 -115 28 0 58 7 71 16 20 14 22 14 22 0 0 -12 10 -16 35 -16
l35 0 0 100 c0 55 -5 111 -12 125 -23 50 -102 73 -181 51z m123 -173 c0 -26
-12 -40 -43 -52 -53 -20 -100 22 -65 57 7 7 34 12 60 12 39 0 48 -3 48 -17z"/>
<path d="M840 315 c0 -9 5 -15 11 -13 6 2 11 8 11 13 0 5 -5 11 -11 13 -6 2
-11 -4 -11 -13z"/>
<path d="M1320 315 c0 -8 7 -15 15 -15 8 0 15 7 15 15 0 8 -7 15 -15 15 -8 0
-15 -7 -15 -15z"/>
<path d="M456 313 c-3 -3 -6 -55 -6 -115 l0 -108 81 0 c51 0 78 4 74 10 -3 5
-33 10 -66 10 l-59 0 0 99 c0 91 -7 121 -24 104z"/>
<path d="M655 237 c-36 -31 -38 -86 -5 -122 29 -31 99 -35 121 -8 12 15 12 16
-4 10 -47 -18 -68 -18 -92 -3 -14 9 -25 25 -25 36 0 18 7 20 70 20 75 0 79 4
55 49 -23 46 -79 54 -120 18z m97 -14 c34 -31 23 -43 -42 -43 -53 0 -60 2 -60
20 0 38 68 54 102 23z"/>
<path d="M840 175 c0 -50 4 -85 10 -85 6 0 10 35 10 85 0 50 -4 85 -10 85 -6
0 -10 -35 -10 -85z"/>
<path d="M930 140 c0 -73 4 -120 10 -120 6 0 10 20 10 45 0 42 11 58 25 35 11
-18 84 -11 105 10 33 33 30 95 -6 128 -29 26 -70 29 -102 6 -20 -14 -22 -14
-22 0 0 9 -4 16 -10 16 -6 0 -10 -47 -10 -120z m135 80 c38 -42 8 -120 -47
-120 -27 0 -68 45 -68 75 0 56 77 87 115 45z"/>
<path d="M1140 251 c0 -6 23 -11 51 -13 l50 -3 -50 -65 c-28 -36 -51 -68 -51
-72 0 -5 30 -7 68 -6 63 2 64 2 15 5 -29 2 -53 7 -53 11 0 4 23 36 50 71 28
35 50 67 50 72 0 5 -29 9 -65 9 -36 0 -65 -4 -65 -9z"/>
<path d="M1320 175 c0 -69 3 -85 15 -85 12 0 15 16 15 85 0 69 -3 85 -15 85
-12 0 -15 -16 -15 -85z"/>
<path d="M1425 235 c-46 -45 -30 -115 30 -135 28 -9 41 -9 65 3 29 15 30 15
30 -8 0 -50 -58 -69 -122 -41 -10 5 -18 4 -18 -1 0 -14 46 -33 79 -33 16 0 40
9 55 21 25 20 26 24 26 120 0 59 -4 99 -10 99 -5 0 -10 -7 -10 -16 0 -14 -2
-14 -22 0 -33 23 -75 20 -103 -9z m107 -12 c39 -35 8 -113 -45 -113 -58 0 -89
69 -50 112 20 22 70 23 95 1z"/>
</g>
</svg>
